<?xml version="1.0" encoding="UTF-8"?>
<svg xmlns="http://www.w3.org/2000/svg" version="1.1" viewBox="0 0 220 220">
  <defs>
    <style>
      .cls-1 {
        fill: #32477c;
      }
    </style>
  </defs>
  <!-- Generator: Adobe Illustrator 28.6.0, SVG Export Plug-In . SVG Version: 1.2.0 Build 709)  -->
  <g>
    <g id="Livello_1">
      <path class="cls-1" d="M156.9,94l3.4-5.8c.4-.6.4-1.4,0-2l-2.6-4.5h0s-21.1-36.7-21.1-36.7c-.4-.6-1-1-1.7-1h-42.1c0,0,0,0,0,0h-5.5c-.7,0-1.4.4-1.7,1l-21.1,36.5h0s-2.7,4.8-2.7,4.8c-.4.6-.4,1.4,0,2l2.6,4.5h0s21.1,36.7,21.1,36.7c.4.6,1,1,1.7,1h5.5s0,0,0,0h29.5c0,0,7,0,7,0h0s5.5,0,5.5,0c.7,0,1.4-.4,1.7-1l20.5-35.5ZM115,84.8l21.2-11c1.3-.7,2.9.3,2.9,1.8v26.8c0,.7-.4,1.4-1,1.7l-21.2,12.3c-1.3.8-3-.2-3-1.7v-28.1c0-.8.3-1.4,1-1.8ZM131.8,70.2l-19.9,9.9c-.6.3-1.2.3-1.8,0l-19.7-10c-1.4-.7-1.5-2.7-.1-3.5l19.7-11.4c.6-.4,1.4-.4,2,0l19.9,11.5c1.4.8,1.3,2.8-.1,3.5ZM85.8,73.8l21,11.1c.7.3,1.1,1,1.1,1.8v28c.1,1.5-1.5,2.5-2.9,1.7l-21.2-12.3c-.6-.4-1-1-1-1.7v-26.8c0-1.5,1.6-2.5,2.9-1.8Z"/>
    </g>
  </g>
</svg>